<?xml version="1.0" encoding="UTF-8"?>
<svg id="Capa_2" data-name="Capa 2" xmlns="http://www.w3.org/2000/svg" viewBox="0 0 30.88 30.88">
  <defs>
    <style>
      .cls-1 {
        fill: #bf9742;
      }

      .cls-2 {
        fill: #f4f3f1;
      }
    </style>
  </defs>
  <g id="Capa_1-2" data-name="Capa 1">
    <g>
      <circle class="cls-2" cx="15.45" cy="15.35" r="12.97"/>
      <g>
        <path class="cls-1" d="M8.37,16.68h-.91v1.24h.89c.46,0,.67-.29.67-.66,0-.34-.18-.58-.64-.58Z"/>
        <path class="cls-1" d="M19.64,12.96c.24,0,.54-.23.65-.51.11-.28,0-.49-.23-.48-.23,0-.5.22-.62.48-.13.27-.04.5.19.5Z"/>
        <path class="cls-1" d="M8.7,14.36c0-.31-.18-.54-.6-.54h-.63v1.07h.67c.4,0,.57-.25.57-.53Z"/>
        <path class="cls-1" d="M21.86,13c.3,0,.63-.26.72-.57.09-.31-.09-.54-.38-.53-.28.01-.59.25-.68.54-.1.3.04.55.34.56Z"/>
        <path class="cls-1" d="M30.18,16.37c.92-.22.93-.62.03-.9-.9-.28-.92-.78-.04-1.12.88-.34.84-.74-.09-.89-.93-.15-1.02-.65-.19-1.11.82-.45.73-.85-.22-.87-.94-.02-1.1-.5-.34-1.07.76-.56.61-.94-.33-.83-.94.1-1.15-.35-.48-1.01.67-.66.47-1.01-.44-.78-.91.23-1.19-.19-.62-.94.58-.75.34-1.07-.54-.71-.87.35-1.21-.02-.74-.85.47-.82.18-1.1-.64-.64-.82.47-1.19.14-.84-.73.35-.87.03-1.12-.72-.54-.75.58-1.17.3-.93-.61.23-.91-.13-1.11-.79-.44-.66.67-1.12.46-1.01-.48.1-.94-.28-1.08-.84-.33-.56.76-1.04.6-1.06-.34-.02-.94-.42-1.03-.88-.21-.45.82-.95.74-1.1-.18-.15-.93-.56-.97-.9-.09-.34.88-.84.86-1.12-.04-.28-.9-.68-.89-.9.03-.22.92-.72.97-1.11.11-.4-.85-.8-.79-.88.15-.09.94-.58,1.06-1.09.27-.51-.79-.9-.67-.86.27.04.94-.42,1.13-1.04.42-.62-.72-.98-.54-.81.39.17.93-.28,1.17-.98.55-.71-.62-1.04-.4-.75.49.3.9-.11,1.2-.89.68-.78-.52-1.09-.25-.67.59.41.84.05,1.2-.79.79-.85-.41-1.11-.11-.59.68.52.78.22,1.19-.68.89-.9-.29-1.12.04-.49.75.63.71.38,1.15-.55.98-.93-.17-1.1.19-.39.81.72.61.53,1.08-.41,1.04-.94-.04-1.06.34-.27.86.79.51.67,1-.27,1.09-.94.09-1,.49-.15.88.86.4.81.9-.11,1.12-.92.22-.94.62-.03.9.9.27.92.78.04,1.12-.88.34-.84.74.1.89.93.15,1.01.65.19,1.11-.82.45-.73.85.21.87.94.02,1.1.5.34,1.07-.76.56-.61.94.33.83.94-.11,1.15.35.48,1.01-.67.66-.47,1.01.44.78.91-.23,1.19.19.61.94-.57.75-.33,1.07.54.71.88-.36,1.21.03.74.84-.47.82-.18,1.1.64.63.82-.47,1.2-.14.84.74-.35.87-.03,1.12.71.54.75-.58,1.17-.3.94.62-.23.91.12,1.11.79.44.66-.67,1.12-.46,1.01.48-.1.94.27,1.09.84.33.56-.76,1.04-.61,1.07.34.02.94.41,1.04.87.21.45-.82.95-.74,1.1.19.15.93.56.97.9.09.33-.88.84-.86,1.12.04.28.9.68.88.9-.03.22-.92.72-.97,1.11-.12.4.86.8.78.88-.15.09-.94.58-1.06,1.1-.27.51.79.89.67.85-.27-.04-.94.43-1.13,1.04-.41.61.71.98.54.81-.39-.17-.92.27-1.17.97-.55.71.63,1.05.41.75-.49-.29-.9.11-1.2.89-.68.78.52,1.09.26.68-.59-.42-.85-.06-1.2.78-.79.85.41,1.11.11.59-.68-.53-.78-.22-1.18.68-.89.9.29,1.12-.04.49-.75-.62-.7-.38-1.14.55-.98.93.17,1.1-.2.39-.81-.72-.61-.54-1.08.41-1.04.94.04,1.06-.34.27-.86-.79-.51-.67-1,.26-1.09.94-.09,1.01-.49.16-.88-.86-.4-.81-.9.11-1.12ZM11.34,19.7v-1.49c-.31.76-1.05,1.24-1.84,1.41-.45.08-.78.08-1.23.08h-4.16s0-1.64,0-1.64h.87v-4.38h-.87v-1.64s3.9,0,3.9,0c.68,0,1.07,0,1.54.12.97.28,1.6.95,1.6,1.88,0,.63-.31,1.29-.97,1.63v.02c1.05.29,1.3,1.06,1.3,1.72,0,.23-.04.44-.11.64h.83v-4.38h-.87v-1.64h6.55s0,.31,0,.31c-.53.65-.94,1.39-1.21,2.18h-.86v-.7h-1.12v1.13h1.86c-.14.56-.2,1.11-.16,1.64h0s.02.15.02.15h-1.71v1.18h1.24v-.68h.56c.03.12.05.24.1.35.07.38.19.9.34,1.55-.02.19.02.35.11.47.03.04.07.07.11.09h-5.81ZM26.63,14.39c.08.09.11.19.09.3-.02.11-.1.21-.21.29-.46.31-.7.92-.54,1.4.04.12.03.26-.03.37-.07.11-.18.2-.31.23-.53.15-.98.71-1,1.29-.01.14-.06.26-.15.35-.08.09-.19.14-.3.15h-.07s-.09,0-.14,0c-.49.02-.97.41-1.18.93-.08.21-.24.35-.41.35-.07,0-.13-.02-.19-.06-.13-.09-.29-.13-.45-.12-.34,0-.7.2-.94.52-.1.13-.22.2-.33.2-.1,0-.18-.06-.24-.16-.14-.24-.37-.38-.64-.37-.19,0-.39.08-.57.21-.08.05-.15.09-.22.09-.13,0-.21-.1-.23-.27-.05-.41-.32-.67-.66-.66-.07,0-.14.02-.21.04-.03.01-.07.02-.1.02-.16,0-.24-.14-.19-.36-.18-.74-.29-1.26-.36-1.61-.09-.26-.15-.53-.18-.83h0c-.05-.54,0-1.13.16-1.74.58-2.15,2.46-4.07,4.38-4.56.33-.08.65-.11.95-.11.92-.02,2.6.11,2.61.11.09-.02.18-.02.23.02.06.04.08.11.07.19-.04.36.25.65.68.65.11,0,.19.04.24.1.05.06.05.15,0,.25-.19.4-.02.84.38,1,.1.04.17.11.18.2.02.09-.02.2-.1.29-.33.39-.35.95-.03,1.28Z"/>
        <path class="cls-1" d="M19.09,17.24c1.94.5,4.35-1.45,4.85-3.87.03-.13-.06-.23-.18-.23-.12,0-.25.1-.28.22-.48,2.06-2.53,3.71-4.19,3.33-1.4-.31-1.7-1.97-.95-3.5.05-.1.02-.17-.05-.18-.07,0-.16.08-.21.17-.86,1.73-.58,3.65,1.01,4.07Z"/>
        <path class="cls-1" d="M25.04,13.14c-.08,2.73-2.63,5.46-5.31,5.53-.87.03-1.55-.25-2.04-.72-.02-.01-.03-.02-.05-.04.48.6,1.23.96,2.22.93,2.64-.07,5.14-2.75,5.22-5.43,0-.24,0-.46-.04-.67,0,.13,0,.26,0,.39Z"/>
        <path class="cls-1" d="M11.34,18.06v.14s.03-.1.05-.14h-.05Z"/>
      </g>
    </g>
  </g>
</svg>